<?xml version="1.0" standalone="no"?>
<!DOCTYPE svg PUBLIC "-//W3C//DTD SVG 20010904//EN"
 "http://www.w3.org/TR/2001/REC-SVG-20010904/DTD/svg10.dtd">
<svg version="1.0" xmlns="http://www.w3.org/2000/svg"
 width="640.000000pt" height="640.000000pt" viewBox="0 0 640.000000 640.000000"
 preserveAspectRatio="xMidYMid meet">
<metadata>
Created by potrace 1.14, written by Peter Selinger 2001-2017
</metadata>
<g transform="translate(0.000000,640.000000) scale(0.100000,-0.100000)"
fill="#000000" stroke="none">
<path d="M2995 6394 c-449 -36 -819 -136 -1210 -329 -454 -223 -840 -543
-1145 -951 -229 -306 -409 -666 -514 -1034 -88 -307 -120 -541 -120 -885 0
-269 13 -398 60 -632 136 -673 497 -1300 1005 -1748 372 -328 787 -557 1249
-690 296 -85 540 -118 875 -119 252 0 353 8 560 45 1168 207 2128 1043 2489
2168 107 332 150 614 150 981 0 247 -8 351 -45 555 -178 1007 -819 1860 -1734
2310 -341 168 -669 266 -1035 311 -122 15 -484 26 -585 18z m1375 -1325 c69
-37 108 -77 147 -152 37 -71 39 -197 6 -270 -34 -72 -569 -833 -607 -862 -65
-50 -125 -70 -211 -70 -71 0 -88 4 -147 33 -119 59 -183 162 -183 297 0 66 5
89 26 135 15 30 150 231 301 445 293 417 309 435 417 470 75 24 177 14 251
-26z m-2156 10 c31 -11 76 -39 100 -62 25 -23 295 -354 600 -735 438 -547 559
-705 575 -748 21 -54 21 -71 21 -1019 0 -952 0 -965 -21 -1020 -24 -64 -94
-142 -156 -174 -91 -46 -224 -43 -316 6 -89 49 -146 131 -166 238 -8 41 -11
329 -11 899 0 479 -3 843 -9 850 -4 6 -237 296 -516 645 -279 348 -517 654
-528 680 -31 65 -31 197 -1 262 39 83 116 154 203 185 56 20 162 17 225 -7z"/>
</g>
</svg>
